<!--?xml version="1.0" standalone="no"?-->
              <svg id="sw-js-blob-svg" viewBox="0 0 100 100" xmlns="http://www.w3.org/2000/svg" version="1.1">
                    <defs> 
                        <linearGradient id="sw-gradient" x1="0" x2="1" y1="1" y2="0">
                            <stop id="stop1" stop-color="rgba(219, 250, 110, 1)" offset="0%"></stop>
                            <stop id="stop2" stop-color="rgba(134, 251, 124, 1)" offset="100%"></stop>
                        </linearGradient>
                    </defs>
                <path fill="url(#sw-gradient)" d="M12.2,-17.3C19.3,-11.7,30.8,-12.7,36.6,-8.6C42.4,-4.6,42.5,4.6,38.4,11C34.2,17.3,26,20.8,18.9,24C11.8,27.1,5.9,29.9,1,28.6C-4,27.3,-7.9,21.8,-13,18C-18.1,14.2,-24.3,12.1,-27.3,7.7C-30.4,3.3,-30.3,-3.3,-29.7,-11C-29.1,-18.8,-27.9,-27.8,-22.8,-34C-17.8,-40.3,-8.9,-43.8,-3.2,-39.5C2.6,-35.1,5.2,-22.9,12.2,-17.3Z" width="100%" height="100%" transform="translate(50 50)" stroke-width="0" style="transition: all 0.3s ease 0s;" stroke="url(#sw-gradient)"></path>
              </svg>